<svg xmlns="http://www.w3.org/2000/svg" xmlns:xlink="http://www.w3.org/1999/xlink" >
    <symbol id="trinityForksLogo" class="trinityForksLogo" width="137" height="43" viewBox="0 0 137 43">
        <path class="shape fork" d="M135.4 18.3h-27.5c1.5-1 2.4-2.7 2.5-4.6.2-3.4-2.4-6.2-5.8-6.4h-.7L64 8.3C63 3.7 59.2 0 54.4 0c-6.8 0-27.3 1.7-27.3 1.7L27 3.5l24.5.5c1.2.1 2.1 1.1 2.1 2.3-.1 1.2-1.1 2.1-2.3 2.1H26.8l-.1 2.3L51.1 13c1.2.1 2.1 1.1 2.1 2.3-.1 1.2-1.1 2.1-2.3 2.1l-24.4-1.9-.1 1.7s2.7.5 6.4 1.2H1.3c-.7 0-1.3.6-1.3 1.3 0 .7.6 1.3 1.3 1.3h134.1c.7 0 1.3-.6 1.3-1.3 0-.8-.6-1.4-1.3-1.4zm-74 0c1-1.1 1.7-2.5 2.2-4l31.2 4H61.4z" fill="#ACD6E6" />
        <path class="shape line-01" d="M82.7 26.1H18.3c-.7 0-1.3-.6-1.3-1.3 0-.7.6-1.3 1.3-1.3h64.4c.7 0 1.3.6 1.3 1.3 0 .7-.6 1.3-1.3 1.3z" fill="#65B2EA" />
        <path class="shape line-02" d="M119.9 26.1H87.8c-.7 0-1.3-.6-1.3-1.3 0-.7.6-1.3 1.3-1.3h32.1c.7 0 1.3.6 1.3 1.3 0 .7-.5 1.3-1.3 1.3z" fill="#65B2EA" />
        <path class="shape line-03" d="M99.2 31.3H37.5c-.7 0-1.3-.6-1.3-1.3 0-.7.6-1.3 1.3-1.3h61.7c.7 0 1.3.6 1.3 1.3 0 .7-.6 1.3-1.3 1.3z" fill="#284598" />
        <path class="shape text" d="M22.2 37.9h-1.7v-.7h4.1v.7h-1.7v4.6h-.7v-4.6zM29.1 37.2H31c.3 0 .6 0 .8.1.2.1.4.2.5.3.1.1.2.3.3.5 0 .2.1.3.1.5s0 .3-.1.5-.1.3-.3.4c-.1.1-.2.2-.4.3-.2.1-.3.1-.5.2l1.5 2.4H32l-1.3-2.3h-.8v2.3h-.7v-5.2h-.1zm.7 2.4h1.3c.1 0 .3-.1.4-.1.1-.1.2-.1.3-.3.1-.1.1-.3.1-.4 0-.2 0-.3-.1-.4l-.3-.3c-.1-.1-.2-.1-.4-.1h-1.3v1.6zM37.4 37.2h.7v5.3h-.7v-5.3zM43.1 37.2h.9l2.9 4.3v-4.3h.7v5.3h-.9l-2.9-4.3v4.3h-.7v-5.3zM52.8 37.2h.7v5.3h-.7v-5.3zM59.7 37.9H58v-.7h4.1v.7h-1.7v4.6h-.7v-4.6zM67.8 40.3l-2-3h.9l1.4 2.3 1.5-2.3h.9l-2 3v2.2h-.7v-2.2zM80.6 37.2H84v.7h-2.6v1.7h2.4v.7h-2.4v2.3h-.7v-5.4h-.1zM91.1 42.6c-.4 0-.8-.1-1.1-.2-.3-.1-.6-.3-.9-.6-.2-.2-.4-.5-.6-.9-.1-.3-.2-.7-.2-1.1 0-.4.1-.8.2-1.1.1-.3.3-.6.6-.9.2-.2.5-.4.9-.6.3-.1.7-.2 1.1-.2.4 0 .8.1 1.1.2.3.1.6.3.9.6.2.2.4.5.6.9.1.3.2.7.2 1.1 0 .4-.1.8-.2 1.1-.1.3-.3.6-.6.9-.2.2-.5.4-.9.6-.4.2-.7.2-1.1.2zm0-.6c.3 0 .6-.1.8-.2.2-.1.5-.3.6-.5.2-.2.3-.4.4-.7.1-.3.1-.5.1-.8 0-.3 0-.6-.1-.8-.1-.3-.2-.5-.4-.7-.2-.2-.4-.3-.6-.5-.2-.1-.5-.2-.8-.2-.3 0-.6.1-.8.2-.2.1-.5.3-.6.5-.2.2-.3.4-.4.7-.1.3-.1.5-.1.8 0 .3 0 .6.1.8.1.3.2.5.4.7.2.2.4.3.6.5.2.1.5.2.8.2zM98.5 37.2h1.9c.3 0 .6 0 .8.1.2.1.4.2.5.3.1.1.2.3.3.5 0 .2.1.3.1.5s0 .3-.1.5-.1.3-.3.4c-.1.1-.2.2-.4.3-.2.1-.3.1-.5.2l1.5 2.4h-.9l-1.3-2.3h-.8v2.3h-.7v-5.2h-.1zm.8 2.4h1.3c.1 0 .3-.1.4-.1.1-.1.2-.1.3-.3.1-.1.1-.3.1-.4 0-.2 0-.3-.1-.4l-.3-.3c-.1-.1-.2-.1-.4-.1h-1.3v1.6zM106.8 37.2h.7v2.3h.1l2.3-2.3h1l-2.5 2.4 2.7 2.8h-1l-2.5-2.6h-.1v2.6h-.7v-5.2zM115.5 41.4c.1.2.3.3.5.4.2.1.4.1.6.1.1 0 .2 0 .4-.1.1 0 .2-.1.3-.2.1-.1.2-.2.2-.3.1-.1.1-.2.1-.4s-.1-.4-.2-.5c-.1-.1-.3-.2-.5-.3-.2-.1-.4-.1-.6-.2l-.6-.3c-.2-.1-.4-.3-.5-.5-.1-.2-.2-.5-.2-.8 0-.2 0-.3.1-.5s.2-.3.3-.5c.1-.1.3-.3.6-.4.2-.1.5-.1.8-.1.3 0 .6 0 .8.1.3.1.5.2.7.5l-.6.5c-.1-.1-.2-.3-.4-.3-.2-.1-.3-.1-.6-.1-.2 0-.4 0-.5.1-.1.1-.2.1-.3.2-.1.1-.1.2-.2.3v.3c0 .2.1.4.2.5.1.1.3.2.5.3.2.1.4.1.6.2.2.1.4.1.6.2.2.1.4.3.5.4.1.2.2.4.2.7 0 .3 0 .5-.1.7-.1.2-.2.4-.4.5l-.6.3c-.2.1-.5.1-.7.1-.3 0-.7-.1-1-.2-.3-.1-.5-.3-.7-.6l.7-.1z" fill="#1D2240" />
    </symbol>
    <symbol id="arrowDown" width="56" height="64" viewBox="0 0 56 64" fill="none" class="arrowDown">
        <path class="shape" d="M54.2054 23.4673C56.5982 25.7289 56.5982 29.3739 54.2054 31.6355C51.7821 33.9257 47.8301 33.9261 45.4065 31.6361L34.1878 21.0354V58.2041C34.1878 61.4051 31.4174 64 28 64C24.5826 64 21.8122 61.4051 21.8122 58.2041V21.0354L10.5935 31.6361C8.16993 33.9261 4.21793 33.9257 1.79456 31.6355C-0.598188 29.3739 -0.598188 25.7289 1.79456 23.4673L25.656 0.915229C26.9471 -0.305076 29.0529 -0.305076 30.344 0.915229L54.2054 23.4673Z" transform="translate(56 64) rotate(180)" fill="#828282" style="fill: var(--shape)" />
    </symbol>
    <symbol id="arrowRight" width="64" height="56" viewBox="0 0 64 56" fill="none" class="arrowRight">
        <path class="shape" d="M54.2054 23.4673C56.5982 25.7289 56.5982 29.3739 54.2054 31.6355C51.7821 33.9257 47.8301 33.9261 45.4065 31.6361L34.1878 21.0354V58.2041C34.1878 61.4051 31.4174 64 28 64C24.5826 64 21.8122 61.4051 21.8122 58.2041V21.0354L10.5935 31.6361C8.16992 33.9261 4.21793 33.9257 1.79456 31.6355C-0.598188 29.3739 -0.598188 25.7289 1.79456 23.4673L25.656 0.915229C26.9471 -0.305076 29.0529 -0.305076 30.344 0.915229L54.2054 23.4673Z" transform="translate(64) rotate(90)" fill="#828282" style="fill: var(--shape)" />
    </symbol>
    <symbol id="arrowToTop" width="56" height="64" viewBox="0 0 56 64" fill="none" class="arrowToTop" style="all: inherit">
        <path class="shape arrow-top" d="M4.97778 0C2.22852 0 0 2.12269 0 4.74074C0 7.3588 2.22852 9.48148 4.97778 9.48148H51.0222C53.7715 9.48148 56 7.3588 56 4.74074C56 2.12269 53.7715 0 51.0222 0H4.97778Z" fill="#828282" style="fill: var(--shape)" />
        <path class="shape arrow" d="M48.6731 38.228C50.5471 36.4277 50.5471 33.5249 48.6731 31.724L29.9861 13.7656C28.975 12.794 27.3258 12.794 26.3147 13.7656L7.62769 31.724C5.75373 33.5249 5.75373 36.4277 7.62769 38.228C9.52535 40.0521 12.6204 40.0521 14.5186 38.2286L23.3045 29.7876V59.3848C23.3045 61.9334 25.474 64 28.1504 64C30.8267 64 32.9963 61.9334 32.9963 59.3848V29.7876L41.7825 38.2286C43.6804 40.0521 46.7754 40.0521 48.6731 38.228Z" fill="#828282" style="fill: var(--shape)" />
    </symbol>
    <symbol id="calendarAlert" width="64" height="64" viewBox="0 0 64 64" fill="none" class="calendarAlert">
        <path class="shape" d="M64 13.453C64 8.45712 59.2797 4.38854 53.4126 4.24487V9.9461C53.4126 13.1853 50.5874 15.8237 47.1189 15.8237C43.6504 15.8237 40.8252 13.1853 40.8252 9.9461V4.23181H22.972V9.95263C22.972 13.1918 20.1469 15.8302 16.6783 15.8302C13.2098 15.8302 10.3846 13.1918 10.3846 9.95263V4.2514C4.61539 4.47997 0 8.50936 0 13.4465V53.8253C0 59.4351 4.88811 64 10.8951 64H53.1049C59.1119 64 64 59.4351 64 53.8253V13.453ZM59.2587 53.8253C59.2587 56.9927 56.4965 59.5722 53.1049 59.5722H10.8951C7.5035 59.5722 4.74126 56.9927 4.74126 53.8253V23.1249H59.2587V53.8253Z" fill="#828282" style="fill: var(--shape)" />
        <path class="shape" d="M13.9371 2.56V9.95266C13.9371 11.3633 15.1608 12.5127 16.6783 12.5127C18.1888 12.5127 19.4196 11.3698 19.4196 9.95266V2.56C19.4196 1.14939 18.1958 0 16.6783 0C15.1678 0 13.9371 1.14939 13.9371 2.56Z" fill="#828282" style="fill: var(--shape)" />
        <path class="shape" d="M47.1189 0C45.6084 0 44.3776 1.14939 44.3776 2.56V9.95266C44.3776 11.3633 45.6014 12.5127 47.1189 12.5127C48.6364 12.5127 49.8601 11.3698 49.8601 9.95266V2.56C49.8601 1.14939 48.6364 0 47.1189 0Z" fill="#828282" style="fill: var(--shape)" />
        <path class="shape" fill-rule="evenodd" clip-rule="evenodd" d="M27.4869 42.6295L26.6164 28.7009C26.5628 27.7768 27.2994 27 28.2235 27H34.4914C35.4155 27 36.1521 27.7768 36.0985 28.7009L35.228 42.6295C35.1744 43.4866 34.4646 44.1429 33.6208 44.1429H29.094C28.2369 44.1429 27.5405 43.4732 27.4869 42.6295ZM31.3571 57C34.317 57 36.7143 54.6026 36.7143 51.6428C36.7143 48.683 34.317 46.2857 31.3571 46.2857C28.3973 46.2857 26 48.683 26 51.6428C26 54.6026 28.3973 57 31.3571 57Z" fill="#828282" style="fill: var(--shape)" />
    </symbol>
    <symbol id="calendarCancel" width="64" height="64" viewBox="0 0 64 64" fill="none" class="calendarCancel">
        <path class="shape" d="M64 13.453C64 8.45712 59.2797 4.38854 53.4126 4.24487V9.9461C53.4126 13.1853 50.5874 15.8237 47.1189 15.8237C43.6504 15.8237 40.8252 13.1853 40.8252 9.9461V4.23181H22.972V9.95263C22.972 13.1918 20.1469 15.8302 16.6783 15.8302C13.2098 15.8302 10.3846 13.1918 10.3846 9.95263V4.2514C4.61539 4.47997 0 8.50936 0 13.4465V53.8253C0 59.4351 4.88811 64 10.8951 64H53.1049C59.1119 64 64 59.4351 64 53.8253V13.453ZM59.2587 53.8253C59.2587 56.9926 56.4965 59.5722 53.1049 59.5722H10.8951C7.5035 59.5722 4.74126 56.9926 4.74126 53.8253V23.1249H59.2587V53.8253Z" fill="#828282" style="fill: var(--shape)" />
        <path class="shape" d="M13.9371 2.56V9.95266C13.9371 11.3633 15.1608 12.5127 16.6783 12.5127C18.1888 12.5127 19.4196 11.3698 19.4196 9.95266V2.56C19.4196 1.14939 18.1958 0 16.6783 0C15.1678 0 13.9371 1.14939 13.9371 2.56Z" fill="#828282" style="fill: var(--shape)" />
        <path class="shape" d="M47.1189 0C45.6084 0 44.3776 1.14939 44.3776 2.56V9.95266C44.3776 11.3633 45.6014 12.5127 47.1189 12.5127C48.6364 12.5127 49.8601 11.3698 49.8601 9.95266V2.56C49.8601 1.14939 48.6364 0 47.1189 0Z" fill="#828282" style="fill: var(--shape)" />
        <path class="shape" d="M26.7807 41.9999L18.0816 33.301C16.6407 31.8593 16.6407 29.521 18.0816 28.0801C19.5218 26.64 21.8601 26.64 23.3002 28.0801L32.0001 36.7805L40.6984 28.0801C42.1402 26.64 44.4769 26.64 45.9179 28.0801C47.3604 29.5218 47.3589 31.8601 45.9179 33.301L37.2196 41.9999L45.9187 50.6972C47.3604 52.1397 47.3604 54.4772 45.9187 55.9181C44.4769 57.3606 42.1402 57.3606 40.6984 55.9181L32.0001 47.2185L23.3002 55.918C21.86 57.3605 19.5217 57.3605 18.0807 55.918C16.6398 54.4771 16.6398 52.1421 18.0807 50.7004L26.7807 41.9999Z" fill="#828282" style="fill: var(--shape)" />
    </symbol>
    <symbol id="calendarCheck" width="64" height="64" viewBox="0 0 64 64" fill="none" class="calendarCheck">
        <path class="shape" d="M64 13.453C64 8.45712 59.2797 4.38854 53.4126 4.24487V9.9461C53.4126 13.1853 50.5874 15.8237 47.1189 15.8237C43.6504 15.8237 40.8252 13.1853 40.8252 9.9461V4.23181H22.972V9.95263C22.972 13.1918 20.1469 15.8302 16.6783 15.8302C13.2098 15.8302 10.3846 13.1918 10.3846 9.95263V4.2514C4.61539 4.47997 0 8.50936 0 13.4465V53.8253C0 59.4351 4.88811 64 10.8951 64H53.1049C59.1119 64 64 59.4351 64 53.8253V13.453ZM59.2587 53.8253C59.2587 56.9926 56.4965 59.5722 53.1049 59.5722H10.8951C7.5035 59.5722 4.74126 56.9926 4.74126 53.8253V23.1249H59.2587V53.8253Z" fill="#828282" style="fill: var(--shape)" />
        <path class="shape" d="M13.9371 2.56V9.95266C13.9371 11.3633 15.1608 12.5127 16.6783 12.5127C18.1888 12.5127 19.4196 11.3698 19.4196 9.95266V2.56C19.4196 1.14939 18.1958 0 16.6783 0C15.1678 0 13.9371 1.14939 13.9371 2.56Z" fill="#828282" style="fill: var(--shape)" />
        <path class="shape" d="M47.1189 0C45.6084 0 44.3776 1.14939 44.3776 2.56V9.95266C44.3776 11.3633 45.6014 12.5127 47.1189 12.5127C48.6364 12.5127 49.8601 11.3698 49.8601 9.95266V2.56C49.8601 1.14939 48.6364 0 47.1189 0Z" fill="#828282" style="fill: var(--shape)" />
        <path class="shape" d="M19.966 41.366L27.5865 46.7359L43.5832 27.1657C44.4644 25.9898 46.1991 25.7041 47.4575 26.5275L47.6688 26.673C48.9269 27.4965 49.233 29.1169 48.3515 30.2931L30.8954 55.4214C30.2364 56.3005 29.5821 56.6064 28.4343 56.6776C27.2864 56.7485 26.5924 56.3503 25.9033 55.7061L15.97 45.0932C14.8701 44.0656 14.8701 42.3989 15.97 41.3717L15.9838 41.3657C17.0834 40.3378 18.8664 40.3378 19.966 41.366Z" fill="#828282" style="fill: var(--shape)" />
    </symbol>
    <symbol id="calendarDates" width="64" height="64" viewBox="0 0 64 64" fill="none" class="calendarDates">
        <path class="shape" d="M17.2308 0C15.7538 0 14.7692 0.984615 14.7692 2.46154V9.84615C14.7692 11.3231 15.7538 12.3077 17.2308 12.3077C18.7077 12.3077 19.6923 11.3231 19.6923 9.84615V2.46154C19.6923 0.984615 18.7077 0 17.2308 0ZM46.7692 0C45.2923 0 44.3077 0.984615 44.3077 2.46154V9.84615C44.3077 11.3231 45.2923 12.3077 46.7692 12.3077C48.2462 12.3077 49.2308 11.3231 49.2308 9.84615V2.46154C49.2308 0.984615 48.2462 0 46.7692 0ZM7.38462 4.92308C3.2 4.92308 0 8.12308 0 12.3077V56.6154C0 60.8 3.2 64 7.38462 64H56.6154C60.8 64 64 60.8 64 56.6154V12.3077C64 8.12308 60.8 4.92308 56.6154 4.92308H51.6923V9.84615C51.6923 12.5538 49.4769 14.7692 46.7692 14.7692C44.0615 14.7692 41.8462 12.5538 41.8462 9.84615V4.92308H22.1538V9.84615C22.1538 12.5538 19.9385 14.7692 17.2308 14.7692C14.5231 14.7692 12.3077 12.5538 12.3077 9.84615V4.92308H7.38462ZM4.92308 22.1538H59.0769V56.6154C59.0769 58.0923 58.0923 59.0769 56.6154 59.0769H7.38462C5.90769 59.0769 4.92308 58.0923 4.92308 56.6154V22.1538Z" fill="#828282" style="fill: var(--shape)" />
        <path class="shape" d="M42.6667 16.543C42.6667 15.9907 42.219 15.543 41.6667 15.543H32.9997C32.4474 15.543 31.9997 15.9907 31.9997 16.543V24.9048C31.9997 25.457 32.4474 25.9048 32.9997 25.9048H41.6667C42.219 25.9048 42.6667 25.457 42.6667 24.9048V16.543Z" transform="translate(10.667 27.4285)" fill="#828282" style="fill: var(--shape)" />
        <path class="shape" d="M10.667 1C10.667 0.447715 10.2193 0 9.66702 0H1C0.447716 0 0 0.447715 0 1V9.36181C0 9.91409 0.447715 10.3618 1 10.3618H9.66702C10.2193 10.3618 10.667 9.91409 10.667 9.36181V1Z" transform="translate(10.667 27.4285)" fill="#828282" style="fill: var(--shape)" />
        <path class="shape" d="M16.0001 9.36181C16.0001 9.91409 16.4478 10.3618 17.0001 10.3618H25.6673C26.2196 10.3618 26.6673 9.91409 26.6673 9.36181V1C26.6673 0.447715 26.2196 0 25.6673 0H17.0001C16.4478 0 16.0001 0.447715 16.0001 1V9.36181Z" transform="translate(10.667 27.4285)" fill="#828282" style="fill: var(--shape)" />
        <path class="shape" d="M41.6667 10.3618C42.219 10.3618 42.6667 9.91409 42.6667 9.36181V1C42.6667 0.447715 42.219 0 41.6667 0H33.0005C32.4482 0 32.0005 0.447715 32.0005 1V9.36181C32.0005 9.91409 32.4482 10.3618 33.0005 10.3618H41.6667Z" transform="translate(10.667 27.4285)" fill="#828282" />
        <path class="shape" d="M16.0001 24.9048C16.0001 25.457 16.4478 25.9048 17.0001 25.9048H25.6673C26.2196 25.9048 26.6673 25.457 26.6673 24.9048V16.5424C26.6673 15.9902 26.2196 15.5424 25.6673 15.5424H17.0001C16.4478 15.5424 16.0001 15.9902 16.0001 16.5424V24.9048Z" transform="translate(10.667 27.4285)" fill="#828282" style="fill: var(--shape)" />
        <path class="shape" d="M0 24.9048C0 25.457 0.447715 25.9048 1 25.9048H9.66702C10.2193 25.9048 10.667 25.457 10.667 24.9048V16.5424C10.667 15.9902 10.2193 15.5424 9.66702 15.5424H1C0.447716 15.5424 0 15.9902 0 16.5424V24.9048Z" transform="translate(10.667 27.4285)" fill="#828282" style="fill: var(--shape)" />
    </symbol>
    <symbol id="calendarTimes" width="64" height="64" viewBox="0 0 64 64" fill="none" class="calendarTimes">
        <path class="shape" d="M8.61568 1C8.61568 0.447716 8.16797 0 7.61568 0H1C0.447716 0 0 0.447715 0 1V7.36917C0 7.92145 0.447715 8.36917 1 8.36917H7.61568C8.16797 8.36917 8.61568 7.92145 8.61568 7.36917V1Z" transform="translate(8.61621 22.1538)" fill="#828282" style="fill: var(--shape)" />
        <path class="shape" d="M12.9232 7.36917C12.9232 7.92145 13.3709 8.36917 13.9232 8.36917H20.539C21.0913 8.36917 21.539 7.92145 21.539 7.36917V1C21.539 0.447716 21.0913 0 20.539 0H13.9232C13.3709 0 12.9232 0.447715 12.9232 1V7.36917Z" transform="translate(8.61621 22.1538)" fill="#828282" style="fill: var(--shape)" />
        <path class="shape" d="M33.4616 8.36917C34.0139 8.36917 34.4616 7.92145 34.4616 7.36917V1C34.4616 0.447716 34.0139 0 33.4616 0H26.8466C26.2943 0 25.8466 0.447715 25.8466 1V7.36917C25.8466 7.92145 26.2943 8.36917 26.8466 8.36917H33.4616Z" transform="translate(8.61621 22.1538)" fill="#828282" style="fill: var(--shape)" />
        <path class="shape" d="M12.9232 19.9231C12.9232 20.4754 13.3709 20.9231 13.9232 20.9231H20.539C21.0913 20.9231 21.539 20.4754 21.539 19.9231V13.5535C21.539 13.0013 21.0913 12.5535 20.539 12.5535H13.9232C13.3709 12.5535 12.9232 13.0013 12.9232 13.5535V19.9231Z" transform="translate(8.61621 22.1538)" fill="#828282" style="fill: var(--shape)" />
        <path class="shape" d="M0 19.9231C0 20.4754 0.447715 20.9231 1 20.9231H7.61568C8.16797 20.9231 8.61568 20.4754 8.61568 19.9231V13.5535C8.61568 13.0013 8.16797 12.5535 7.61568 12.5535H1C0.447716 12.5535 0 13.0013 0 13.5535V19.9231Z" transform="translate(8.61621 22.1538)" fill="#828282" style="fill: var(--shape)" />
        <path class="shape" fill-rule="evenodd" clip-rule="evenodd" d="M11.9287 1.98828C11.9287 0.795166 12.7246 0 13.917 0C15.1104 0 15.9053 0.795166 15.9053 1.98828V7.95264C15.9053 9.14551 15.1104 9.94092 13.917 9.94092C12.7246 9.94092 11.9287 9.14551 11.9287 7.95264V1.98828ZM35.7871 1.98828C35.7871 0.795166 36.582 0 37.7754 0C38.9678 0 39.7637 0.795166 39.7637 1.98828V7.95264C39.7637 9.14551 38.9678 9.94092 37.7754 9.94092C36.582 9.94092 35.7871 9.14551 35.7871 7.95264V1.98828ZM0 9.94092C0 6.56104 2.58496 3.97632 5.96484 3.97632H9.94043V7.95264C9.94043 10.1396 11.7305 11.929 13.917 11.929C16.1045 11.929 17.8936 10.1396 17.8936 7.95264V3.97632H33.7988V7.95264C33.7988 10.1396 35.5879 11.929 37.7754 11.929C39.9619 11.929 41.752 10.1396 41.752 7.95264V3.97632H45.7275C49.1074 3.97632 51.6924 6.56104 51.6924 9.94092V30.7693H47.7158V17.8936H3.97656V45.7278C3.97656 46.9209 4.77148 47.7161 5.96484 47.7161H30.7695V51.6924H5.96484C2.58496 51.6924 0 49.1077 0 45.7278V9.94092Z" fill="#828282" style="fill: var(--shape)" />
        <path class="shape" d="M30.7693 15.3842C30.7693 23.8811 23.881 30.7693 15.3846 30.7693C6.88883 30.7693 0 23.8811 0 15.3842C0 6.88852 6.8887 0 15.3846 0C23.881 0 30.7693 6.88839 30.7693 15.3842ZM26.9236 15.3842C26.9236 9.02239 21.7477 3.84592 15.3847 3.84592C9.02222 3.84592 3.84633 9.02227 3.84633 15.3842C3.84633 21.7473 9.02222 26.923 15.3847 26.923C21.7477 26.923 26.9236 21.7473 26.9236 15.3842ZM21.154 15.3842H15.3846V9.61481C15.3846 8.55237 14.5246 7.69235 13.4615 7.69235C12.3984 7.69235 11.5389 8.55237 11.5389 9.61481V17.3079C11.5389 18.3705 12.3984 19.231 13.4615 19.231H21.154C22.2171 19.231 23.0771 18.3705 23.0771 17.3079C23.0771 16.2449 22.2171 15.3842 21.154 15.3842Z" transform="translate(33.2305 33.231)" fill="#828282" style="fill: var(--shape)" />
    </symbol>
    <symbol id="caretDown" width="64" height="40" viewBox="0 0 64 40" fill="none" class="caretDown">
        <path class="shape" d="M38.2541 27.3909L12.5033 1.76064C10.1448 -0.58688 6.2792 -0.58688 3.92064 1.76064L1.77161 3.89961C-0.586953 6.24446 -0.586953 10.0919 1.77161 12.4395L21.4191 32.0003L1.76892 51.5585C-0.589641 53.9061 -0.589641 57.7535 1.76892 60.0984L3.91795 62.2374C6.27651 64.5875 10.1421 64.5875 12.5006 62.2374L38.2514 36.6045C39.5193 35.3451 40.0834 33.6554 39.9894 31.9977C40.0861 30.3426 39.522 28.6528 38.2541 27.3909Z" transform="translate(64) rotate(90)" fill="#828282" style="fill: var(--shape)" />
    </symbol>
    <symbol id="caretLeft" width="40" height="60" viewBox="0 0 40 60" fill="none" class="caretLeft">
        <g transform="translate(20.000000, 30.000000) scale(-1, 1) translate(-20.000000, -30.000000) " fill="#08282B" fill-rule="nonzero" >
            <path class="shape" d="M38.2541,25.6789 L12.5033,1.6506 C10.1448,-0.5502 6.2792,-0.5502 3.92064,1.6506 L1.77161,3.65588 C-0.586953,5.85418 -0.586953,9.46118 1.77161,11.662 L21.4191,30.0003 L1.76892,48.3361 C-0.589641,50.5369 -0.589641,54.1439 1.76892,56.3422 L3.91795,58.3475 C6.27651,60.5508 10.1421,60.5508 12.5006,58.3475 L38.2514,34.3167 C39.5193,33.1361 40.0834,31.5519 39.9894,29.9978 C40.0861,28.4462 39.522,26.862 38.2541,25.6789 Z" style="fill: var(--shape)"></path>
        </g>
    </symbol>
    <symbol id="caretRight" width="40" height="60" viewBox="0 0 40 60" fill="none" class="caretRight">
        <path class="shape" d="M38.2541 25.6789L12.5033 1.6506C10.1448 -0.5502 6.2792 -0.5502 3.92064 1.6506L1.77161 3.65588C-0.586953 5.85418 -0.586953 9.46118 1.77161 11.662L21.4191 30.0003L1.76892 48.3361C-0.589641 50.5369 -0.589641 54.1439 1.76892 56.3422L3.91795 58.3475C6.27651 60.5508 10.1421 60.5508 12.5006 58.3475L38.2514 34.3167C39.5193 33.1361 40.0834 31.5519 39.9894 29.9978C40.0861 28.4462 39.522 26.862 38.2541 25.6789Z" fill="#8282b82" style="fill: var(--shape)" />
    </symbol>
    <symbol id="check" width="80" height="64" viewBox="0 0 80 64" fill="none" class="check">
        <path class="shape" d="M34.4633 64C32.8614 64 31.3005 63.424 30.1004 62.3706C30.0981 62.3686 30.0958 62.3666 30.0935 62.3645L1.9419 37.8897C1.94162 37.8895 1.94134 37.8893 1.94106 37.889C-0.804963 35.4979 -0.484225 30.1275 1.94143 27.4152C4.35032 24.7032 9.55252 23.614 12.2994 26.0115C12.3004 26.0124 12.3014 26.0133 12.3024 26.0141L31.2858 42.5186C32.0108 43.1488 33.1148 43.0477 33.7132 42.2962L65.8613 1.92179C65.8622 1.92068 65.8631 1.91956 65.864 1.91844C68.1181 -0.924033 74.0463 -0.338628 76.9156 1.91995C79.7934 4.15405 81.1203 9.44468 78.8515 12.2892C78.8512 12.2897 78.8508 12.2901 78.8504 12.2906L39.6612 61.5089C39.6606 61.5097 39.6599 61.5105 39.6593 61.5113C38.541 62.9205 36.8804 63.8187 35.0636 63.9753C34.8663 63.9918 34.6607 64 34.4633 64Z" fill="#828282" style="fill: var(--shape)" />
    </symbol>
    <symbol id="close" width="64" height="64" viewBox="0 0 64 64" fill="none" class="close">
        <path class="shape" d="M20.8655 32.0002L2.30745 50.5578C-0.766601 53.6334 -0.766601 58.6218 2.30745 61.6958C5.37981 64.7681 10.3683 64.7681 13.4405 61.6958L32.0002 43.1348L50.5566 61.6958C53.6323 64.7681 58.6174 64.7681 61.6915 61.6958C64.769 58.6201 64.7656 53.6317 61.6915 50.5578L43.1351 32.0002L61.6932 13.4461C64.769 10.3687 64.769 5.382 61.6932 2.30803C58.6174 -0.769344 53.6323 -0.769344 50.5566 2.30803L32.0002 20.8673L13.4405 2.30824C10.3681 -0.769131 5.3796 -0.769131 2.30554 2.30824C-0.768514 5.38222 -0.768514 10.3636 2.30554 13.4393L20.8655 32.0002Z" transform="translate(0 64) scale(1 -1)" fill="#828282" style="fill: var(--shape)" />
    </symbol>
    <symbol id="confirm" width="64" height="64" viewBox="0 0 64 64" fill="none" class="confirm">
        <path class="shape" fill-rule="evenodd" clip-rule="evenodd" d="M11.8125 64H52.1875C58.7119 64 64 58.7114 64 52.1875V11.8125C64 5.28857 58.7119 0 52.1875 0H32.4951C26.6758 0 21.958 4.71729 21.958 10.5366C21.958 16.3557 17.2412 21.0732 11.4219 21.0732H10.9795C4.91504 21.0732 0 25.9888 0 32.0522V52.1875C0 58.7114 5.28906 64 11.8125 64ZM35.7041 39.3347C37.4033 39.1626 38.7607 37.8503 38.9893 36.2241L38.9336 22.1135H46.0684V33.8208V36.2241C45.6387 43.4468 40.1309 46.4426 35.1475 46.4426H34.0977H24.918V55.4143L12.5898 42.6663L24.918 30.4387V39.3347H35.7041Z" fill="#828282" style="fill: var(--shape)" />
    </symbol>
    <symbol id="email" width="64" height="40" viewBox="0 0 64 40" fill="none" class="email">
        <path class="shape" d="M58.6449 1.83703e-07H5.3551C2.40327 1.83703e-07 0 2.2152 0 4.94206V35.064C0 37.7908 2.40327 40 5.3551 40H58.6449C61.6098 40 64 37.7908 64 35.064V4.94206C64 2.2152 61.6163 1.83703e-07 58.6449 1.83703e-07ZM57.2212 3.59368L36.0882 20.8698C34.2465 22.3807 32.8816 23.1392 32 23.1392C31.1184 23.1392 29.7535 22.3807 27.9118 20.8698L6.77878 3.59368H57.2212ZM4.04898 33.854V6.85628L20.5127 20.1655L4.04898 33.854ZM6.93551 36.4184L23.4906 22.8623L26.2008 25.0534C27.7747 26.3236 29.7143 26.9737 32 26.9737C34.2988 26.9737 36.2253 26.3236 37.8057 25.0534L40.5159 22.8623L57.071 36.4184H6.93551ZM59.9576 33.854L43.4873 20.1655L59.951 6.85628V33.854H59.9576Z" fill="#828282" style="fill: var(--shape)" />
    </symbol>
    <symbol id="home" width="64" height="64" viewBox="0 0 64 64" class="home">
        <path class="home-house shape" d="M61.8 27.6448L56 21.9224V7.89853C56 5.72643 54.2 3.94926 52 3.94926H48C45.8 3.94926 44 5.72643 44 7.89853V10.0825L36 2.19184C34.908 1.17293 33.908 0 32 0C30.092 0 29.092 1.17293 28 2.19184L2.2 27.6448C0.952 28.9284 0 29.8643 0 31.5941C0 33.8175 1.728 35.5434 4 35.5434H8V59.2389C8 61.411 9.8 63.1882 12 63.1882H24H28C28 65.8211 28 61.0161 28 63.1882H34.6667C36.8667 63.1882 38.6667 63.1882 40 63.1882H52C54.2 63.1882 56 61.411 56 59.2389V35.5434H60C62.272 35.5434 64 33.8175 64 31.5941C64 29.8643 63.048 28.9284 61.8 27.6448Z" fill="#828282" style="fill: var(--home-house, --shape, white)" />
        <rect class="home-window" width="16" height="18.4299" transform="translate(23.999 34.2266)" fill="white" style="fill: var(--home-window, white)" />
    </symbol>
    <symbol id="information" width="64" height="64" viewBox="0 0 64 64" fill="none" class="information">
        <path class="shape" d="M32.0003 1.27409e-08C14.3266 1.27409e-08 -1.92671e-08 14.3263 -1.92671e-08 31.9997C-1.92671e-08 49.6731 14.3266 64 32.0003 64C49.6741 64 64 49.6731 64 31.9997C64 14.3263 49.6741 1.27409e-08 32.0003 1.27409e-08ZM37.5835 50.923C37.5835 53.7918 35.1031 56.1164 32.044 56.1164C28.9849 56.1164 26.5044 53.7918 26.5044 50.923V27.0956C26.5044 24.2275 28.9849 21.9023 32.044 21.9023C35.1031 21.9023 37.5835 24.2275 37.5835 27.0956V50.923ZM32.0003 19.7608C28.7105 19.7608 26.043 17.094 26.043 13.803C26.043 10.5125 28.7098 7.84579 32.0003 7.84579C35.2915 7.84579 37.9583 10.5125 37.9583 13.803C37.9576 17.094 35.2908 19.7608 32.0003 19.7608Z" fill="#828282" style="fill: var(--shape)" />
    </symbol>
    <symbol id="location" width="64" height="64" viewBox="0 0 64 64" fill="none" class="location">
        <path class="location-geoFence shape" d="M46.725 -5.21065e-07C45.7256 1.6434 44.6371 3.35509 43.4579 5.13366C53.3833 6.649 58.4637 9.89596 58.4637 11.5095C58.4637 13.6594 49.4611 18.7006 32.0007 18.7006C14.5389 18.7006 5.53486 13.6594 5.53486 11.5095C5.53486 9.89453 10.6153 6.649 20.5435 5.13366C19.3629 3.35509 18.2744 1.6434 17.275 -5.21065e-07C7.47784 1.88813 0 5.76398 0 11.5109C0 19.9413 16.1 24.3507 32.0007 24.3507C47.9014 24.3507 64 19.9399 64 11.5109C64 5.76398 56.5236 1.88813 46.725 -5.21065e-07Z" transform="translate(0 39.6494)" fill="#828282" style="fill: var(--shape)" />
        <path class="location-pin shape" d="M18.7162 50.6237C20.1546 50.6237 21.508 49.9251 22.3583 48.7385C27.8011 41.1547 37.4296 26.6728 37.4296 19.1047C37.4296 8.55278 29.05 -7.46316e-09 18.7148 -7.46316e-09C8.37685 -7.46316e-09 -5.74236e-07 8.55278 -5.74236e-07 19.1047C-5.74236e-07 26.6714 9.62572 41.1547 15.07 48.7385C15.9244 49.9251 17.2778 50.6237 18.7162 50.6237ZM10.9303 18.7276C10.9303 14.3395 14.4149 10.7824 18.7148 10.7824C23.0134 10.7824 26.4979 14.3395 26.4979 18.7276C26.4979 23.1157 23.0134 26.6728 18.7148 26.6728C14.4149 26.6743 10.9303 23.1171 10.9303 18.7276Z" transform="translate(13.2871)" fill="#828282" style="fill: var(--shape)" />
    </symbol>
    <symbol id="notification" width="64" height="64" viewBox="0 0 64 64" fill="none" class="notification">
        <path class="shape" fill-rule="evenodd" clip-rule="evenodd" d="M63.236 41.9256L60.924 39.8154C54.304 33.7591 50.58 31.6161 50.58 23.051H50.568C50.568 15.7806 45.56 9.59636 38.528 7.17898C38.604 6.82058 38.644 6.45487 38.644 6.07818C38.644 2.72092 35.668 0 32 0C28.332 0 25.356 2.72092 25.356 6.07818C25.356 6.45487 25.4 6.82058 25.472 7.17898C18.444 9.59636 13.432 15.7806 13.432 23.051H13.42C13.42 31.6197 9.7 33.7591 3.072 39.8154L0.764 41.9256C0.276 42.3717 0 42.9788 0 43.6115V47.4369C0 48.7535 1.168 49.825 2.608 49.825H61.392C62.832 49.825 64 48.7535 64 47.4369V43.6115C64 42.9788 63.728 42.3717 63.236 41.9256Z" fill="#828282" style="fill: var(--shape)" />
        <mask id="mask0" mask-type="alpha" maskUnits="userSpaceOnUse" x="19" y="52" width="26" height="12">
            <path path="shape" fill-rule="evenodd" clip-rule="evenodd" d="M25.256 11.6184H0V0H25.256V11.6184Z" transform="translate(19.3721 52.3816)" fill="white" />
        </mask>
        <g mask="url(#mask0)">
            <path fill-rule="evenodd" clip-rule="evenodd" d="M12.628 7.96161C18.576 7.96161 23.604 4.61167 25.256 0H0C1.656 4.61167 6.68 7.96161 12.628 7.96161Z" transform="translate(19.999 53.0288)" fill="#828282" />
        </g>
    </symbol>
    <symbol id="people" width="56" height="64" viewBox="0 0 56 64" fill="none" class="people">
        <path class="shape" d="M5.84137 17.1296H18.6716C20.2202 17.1314 21.7049 17.7192 22.8 18.7642C23.8951 19.8092 24.5111 21.2261 24.5129 22.704V37.2038C24.5165 37.7199 24.3872 38.2288 24.1362 38.686C23.8852 39.1431 23.5203 39.5343 23.0736 39.8252C22.6269 40.116 22.1121 40.2977 21.5746 40.354C21.0371 40.4104 20.4933 40.3398 19.991 40.1484L18.706 62.1572C18.6727 62.6571 18.4409 63.1261 18.0578 63.4685C17.6747 63.8109 17.1692 64.001 16.6443 64H7.8549C7.33001 64.001 6.82448 63.8109 6.44139 63.4685C6.0583 63.1261 5.82651 62.6571 5.79326 62.1572L4.52192 40.1484C4.01971 40.3398 3.4759 40.4104 2.93836 40.354C2.40082 40.2977 1.88604 40.116 1.43935 39.8252C0.992667 39.5343 0.627769 39.1431 0.376787 38.686C0.125804 38.2288 -0.0035626 37.7199 7.47924e-05 37.2038V22.704C0.00189352 21.2261 0.617898 19.8092 1.71296 18.7642C2.80802 17.7192 4.29272 17.1314 5.84137 17.1296ZM12.253 3.13896e-06C10.8248 0.00129993 9.42911 0.40664 8.24227 1.16479C7.05542 1.92293 6.13075 2.99985 5.58515 4.2594C5.03954 5.51896 4.89749 6.9046 5.17695 8.24119C5.45641 9.57777 6.14484 10.8053 7.15521 11.7686C8.16558 12.7318 9.45253 13.3876 10.8534 13.6531C12.2542 13.9185 13.7061 13.7816 15.0255 13.2597C16.3448 12.7379 17.4724 11.8544 18.2658 10.7211C19.0591 9.58778 19.4825 8.25544 19.4825 6.89251C19.4825 5.98682 19.2955 5.09001 18.9321 4.25335C18.5687 3.41668 18.036 2.65657 17.3646 2.01645C16.6932 1.37634 15.8962 0.868776 15.0191 0.522781C14.142 0.176786 13.2021 -0.000858601 12.253 3.13896e-06ZM32.1203 39.9254L33.1649 40.1615L31.2957 51.5725C31.2541 51.7619 31.2569 51.9578 31.304 52.1461C31.3511 52.3343 31.4413 52.5103 31.5681 52.6614C31.6948 52.8125 31.8551 52.9349 32.0373 53.0199C32.2195 53.1049 32.4192 53.1503 32.622 53.153H37.4806L38.0922 62.4916C38.1151 62.8959 38.2996 63.2763 38.6078 63.5545C38.9159 63.8327 39.3242 63.9875 39.7484 63.9869H46.057C46.4812 63.9875 46.8894 63.8327 47.1976 63.5545C47.5057 63.2763 47.6903 62.8959 47.7131 62.4916L48.3248 53.153H53.1833C53.3861 53.1503 53.5858 53.1049 53.768 53.0199C53.9502 52.9349 54.1105 52.8125 54.2373 52.6614C54.364 52.5103 54.4542 52.3343 54.5013 52.1461C54.5484 51.9578 54.5513 51.7619 54.5097 51.5725L52.6404 40.1615L53.685 39.9254C54.4691 39.7394 55.1439 39.2641 55.5613 38.6039C55.9787 37.9437 56.1047 37.1524 55.9116 36.4037L51.967 21.6547C51.6362 20.364 50.8612 19.2166 49.7659 18.3962C48.6707 17.5757 47.3187 17.1298 45.9264 17.1296H39.8789C38.4866 17.1298 37.1346 17.5757 36.0394 18.3962C34.9442 19.2166 34.1691 20.364 33.8383 21.6547L29.9006 36.4037C29.7073 37.1515 29.8323 37.942 30.2483 38.602C30.6644 39.2621 31.3375 39.7379 32.1203 39.9254ZM42.9027 3.13896e-06C41.4742 3.13896e-06 40.0778 0.404242 38.89 1.1616C37.7023 1.91896 36.7765 2.99542 36.2299 4.25486C35.6832 5.5143 35.5402 6.90016 35.8189 8.23717C36.0975 9.57419 36.7854 10.8023 37.7955 11.7663C38.8056 12.7302 40.0926 13.3866 41.4936 13.6526C42.8946 13.9185 44.3469 13.782 45.6666 13.2604C46.9864 12.7387 48.1144 11.8553 48.908 10.7218C49.7017 9.58832 50.1252 8.25572 50.1252 6.89251C50.1252 5.0645 49.3643 3.31137 48.0098 2.01877C46.6553 0.726176 44.8182 3.13896e-06 42.9027 3.13896e-06Z" fill="#828282" style="fill: var(--shape)" />
    </symbol>
    <symbol id="person" width="64" height="64" viewBox="0 0 64 64" fill="none" class="person">
        <path class="shape" d="M32 0C14.3282 0 0 14.3282 0 32C0 49.6718 14.3282 64 32 64C49.6718 64 64 49.6718 64 32C64 14.3282 49.6718 0 32 0ZM32.0457 61.5184C21.0939 61.5184 13.3159 54.8049 13.2049 54.7004C14.9812 53.6686 22.2563 52.2514 23.9608 51.1804C25.8482 49.9918 25.2408 43.5004 25.2408 43.5004L23.9608 42.3771C23.9608 42.3771 23.7061 39.4057 23.0792 38.3804C22.0147 36.6237 20.5192 31.9804 20.5192 31.9804C20.5192 31.9804 19.52 31.2555 19.2849 29.9624C18.9714 29.8318 18.9584 29.342 19.2457 29.1853C19.3567 27.7029 20.5192 26.8604 20.5192 26.8604C20.5192 26.8604 19.52 22.3282 19.52 19.1804C19.52 12.0229 24.9665 8.94041 32.4245 8.94041C39.889 8.94041 44.0359 12.5649 44.0359 19.1804C44.0359 22.3282 43.5592 26.8604 43.5592 26.8604C43.5592 26.8604 44.8392 27.7943 44.8392 29.4204C44.8392 31.0465 43.5592 31.9804 43.5592 31.9804C43.5592 31.9804 42.2465 35.9902 40.9992 38.3804C40.4441 39.4449 40.1175 42.3771 40.1175 42.3771L38.8376 43.4939C38.8376 43.4939 38.2302 49.9853 40.1175 51.1739C41.7959 52.2318 48.9143 53.6229 50.8016 54.6547C50.7951 54.7853 42.9976 61.5184 32.0457 61.5184Z" fill="#828282" style="fill: var(--shape)" />
    </symbol>
    <symbol id="phone" width="64" height="64" viewBox="0 0 64 64" fill="none" class="phone">
        <path class="shape" d="M61.6746 3.07681L48.6746 0.0771832C47.2604 -0.249192 45.8147 0.483684 45.2426 1.81856L39.2426 15.8182C38.9863 16.4162 38.9314 17.0814 39.0861 17.7133C39.2408 18.3453 39.5968 18.9098 40.1004 19.3218L47.6775 25.5213C43.1809 35.1057 35.3102 43.0849 25.5213 47.6774L19.3218 40.1003C18.9098 39.5968 18.3453 39.2408 17.7133 39.0861C17.0814 38.9314 16.4162 38.9863 15.8182 39.2426L1.81858 45.2426C0.484077 45.8145 -0.249299 47.26 0.0772013 48.6746L3.07683 61.6746C3.38858 63.0255 4.59346 64 5.99996 64C38.0109 64 64 38.0585 64 5.99994C64 4.60294 63.0358 3.39081 61.6746 3.07681Z" fill="#828282" style="fill: var(--shape)" />
    </symbol>
    <symbol id="search" width="64" height="64" viewBox="0 0 64 64" fill="none" class="search">
        <path class="shape" d="M62.2394 53.7371L51.6332 43.1314C54.426 38.7682 56.0968 33.6117 56.0968 28.0465C56.0967 12.5568 43.5392 0 28.0484 0C12.5576 0 0 12.5568 0 28.0465C0 43.5362 12.5576 56.0931 28.0484 56.0931C33.6139 56.0931 38.7709 54.4222 43.1304 51.6296L53.7367 62.2391C56.0848 64.587 59.8913 64.587 62.2355 62.2391C64.5875 59.8874 64.5875 56.0849 62.2394 53.7371ZM28.0484 48.0798C16.9853 48.0798 8.01382 39.1088 8.01382 28.0466C8.01382 16.9843 16.9853 8.01339 28.0484 8.01339C39.1114 8.01339 48.0829 16.9843 48.0829 28.0466C48.083 39.1088 39.1115 48.0798 28.0484 48.0798Z" fill="#828282" style="fill: var(--shape)" />
    </symbol>
    <symbol id="uparrowCircle" width="70" height="70" viewBox="0 0 70 70" fill="none" class="uparrowCircle">
        <circle class="shape circle" cx="35" cy="34" r="32" fill="white" stroke="#828282" stroke-width="2"  style="fill: var(--shape-circle); stroke: var(--stroke-circle)" />
        <path class="shape marker" d="M22.6264 19.0667C21.2125 19.0667 20.0664 20.1987 20.0664 21.595C20.0664 22.9913 21.2125 24.1234 22.6264 24.1234H46.3064C47.7203 24.1234 48.8664 22.9913 48.8664 21.595C48.8664 20.1987 47.7203 19.0667 46.3064 19.0667H22.6264Z" fill="#828282" style="fill: var(--shape);" />
        <path class="shape arrow" d="M45.0983 39.4549C46.062 38.4947 46.062 36.9466 45.0983 35.9861L35.4878 26.4083C34.9678 25.8901 34.1197 25.8901 33.5997 26.4083L23.9892 35.9861C23.0255 36.9466 23.0255 38.4947 23.9892 39.4549C24.9652 40.4278 26.5569 40.4278 27.5331 39.4552L32.0516 34.9534V50.7386C32.0516 52.0978 33.1673 53.2 34.5437 53.2C35.9202 53.2 37.0359 52.0978 37.0359 50.7386V34.9534L41.5545 39.4552C42.5306 40.4278 44.1223 40.4278 45.0983 39.4549Z" fill="#828282" style="fill: var(--shape);" />
    </symbol>
</svg>