<svg width="939" height="899" viewBox="0 0 939 899" fill="none" xmlns="http://www.w3.org/2000/svg">
<path d="M739.872 23.1057C905.662 76.552 923.509 525.273 732.265 684.019C541.02 842.765 67.6523 734.066 52.8869 593.582C38.1214 453.099 346.602 420.676 431.108 353.228C515.614 285.781 574.081 -30.3405 739.872 23.1057Z" fill="#E4F7F6"/>
<path fill-rule="evenodd" clip-rule="evenodd" d="M887.894 265.989C888.37 269.7 888.812 273.433 889.219 277.186L886.468 277.484C886.063 273.749 885.623 270.034 885.15 266.342L887.894 265.989ZM891.226 299.697C891.491 303.454 891.721 307.228 891.918 311.016L889.154 311.159C888.959 307.388 888.729 303.631 888.466 299.891L891.226 299.697ZM882.54 232.499C883.25 236.176 883.923 239.883 884.56 243.619L881.832 244.084C881.198 240.368 880.529 236.68 879.823 233.023L882.54 232.499ZM892.685 333.579C892.747 337.334 892.775 341.099 892.771 344.873L890.004 344.869C890.008 341.112 889.98 337.363 889.919 333.624L892.685 333.579ZM874.948 199.425C875.921 203.048 876.855 206.711 877.75 210.412L875.06 211.062C874.17 207.384 873.242 203.743 872.276 200.143L874.948 199.425ZM892.354 367.474C892.22 371.226 892.053 374.984 891.855 378.746L889.091 378.6C889.289 374.854 889.455 371.112 889.588 367.375L892.354 367.474ZM864.824 167.077C866.09 170.58 867.315 174.136 868.498 177.741L865.868 178.603C864.694 175.024 863.478 171.495 862.221 168.017L864.824 167.077ZM890.276 401.289C889.949 405.039 889.589 408.789 889.197 412.538L886.445 412.25C886.835 408.517 887.194 404.783 887.519 401.049L890.276 401.289ZM851.685 135.749C853.315 139.111 854.898 142.543 856.433 146.039L853.899 147.152C852.377 143.686 850.809 140.286 849.195 136.956L851.685 135.749ZM886.456 434.966C885.934 438.696 885.379 442.422 884.792 446.142L882.058 445.71C882.644 442.007 883.196 438.297 883.716 434.583L886.456 434.966ZM880.866 468.389C880.143 472.093 879.387 475.787 878.597 479.47L875.891 478.889C876.678 475.223 877.431 471.546 878.15 467.859L880.866 468.389ZM834.917 106.164C836.992 109.29 839.014 112.509 840.981 115.815L838.603 117.23C836.658 113.961 834.661 110.782 832.611 107.695L834.917 106.164ZM873.44 501.47C872.509 505.127 871.542 508.77 870.542 512.396L867.874 511.66C868.87 508.051 869.831 504.426 870.759 500.787L873.44 501.47ZM813.753 79.5575C816.347 82.2492 818.879 85.063 821.349 87.9936L819.234 89.7771C816.801 86.8916 814.31 84.1235 811.76 81.4776L813.753 79.5575ZM864.086 534.063C862.936 537.649 861.75 541.216 860.528 544.761L857.912 543.86C859.127 540.334 860.306 536.786 861.451 533.218L864.086 534.063ZM852.685 565.979C851.293 569.496 849.864 572.987 848.397 576.451L845.849 575.372C847.307 571.929 848.728 568.458 850.112 564.96L852.685 565.979ZM787.446 57.9446C790.631 59.9436 793.748 62.1022 796.795 64.4137L795.122 66.6183C792.138 64.3546 789.089 62.2427 785.975 60.2886L787.446 57.9446ZM839.07 597.039C837.42 600.449 835.73 603.827 834.001 607.17L831.543 605.898C833.261 602.577 834.939 599.222 836.579 595.834L839.07 597.039ZM761.7 45.8666C763.513 46.4511 765.309 47.0822 767.086 47.759L766.102 50.3451C764.368 49.6852 762.618 49.07 760.851 48.5004C759.089 47.9324 757.34 47.4068 755.604 46.9226L756.347 44.2571C758.12 44.7513 759.904 45.2876 761.7 45.8666ZM823.05 626.966C821.132 630.211 819.172 633.417 817.171 636.582L814.832 635.103C816.818 631.962 818.764 628.78 820.668 625.558L823.05 626.966ZM804.47 655.326C802.24 658.396 799.967 661.418 797.649 664.39L795.467 662.688C797.765 659.742 800.02 656.745 802.231 653.7L804.47 655.326ZM723.999 39.7472C727.589 39.7239 731.234 39.8828 734.933 40.2318L734.673 42.9868C731.065 42.6463 727.513 42.4916 724.017 42.5143L723.999 39.7472ZM783.095 681.725C780.557 684.53 777.972 687.279 775.342 689.969L773.363 688.035C775.969 685.37 778.528 682.647 781.043 679.868L783.095 681.725ZM691.766 45.0897C695.227 43.9395 698.744 42.9645 702.321 42.175L702.917 44.8772C699.436 45.6456 696.011 46.5949 692.638 47.7156L691.766 45.0897ZM758.86 705.507C757.436 706.741 756 707.96 754.552 709.162C753.15 710.325 751.734 711.474 750.302 712.609L748.583 710.441C749.998 709.319 751.399 708.183 752.785 707.032C754.217 705.843 755.638 704.638 757.048 703.416L758.86 705.507ZM662.507 59.6202C665.562 57.5818 668.666 55.6803 671.82 53.925L673.166 56.3429C670.08 58.0604 667.039 59.923 664.042 61.9222L662.507 59.6202ZM732.492 725.515C729.454 727.527 726.364 729.485 723.224 731.39L721.789 729.024C724.898 727.138 727.957 725.199 730.964 723.208L732.492 725.515ZM637.319 80.3475C639.931 77.7815 642.58 75.3116 645.267 72.9453L647.096 75.022C644.449 77.3532 641.837 79.7888 639.259 82.3215L637.319 80.3475ZM704.03 742.074C700.765 743.739 697.456 745.355 694.106 746.922L692.934 744.415C696.256 742.862 699.537 741.26 702.772 739.609L704.03 742.074ZM615.657 104.686C617.915 101.829 620.199 99.0383 622.513 96.3186L624.621 98.1116C622.33 100.805 620.066 103.57 617.829 106.402L615.657 104.686ZM673.947 755.573C670.563 756.902 667.144 758.187 663.692 759.429L662.755 756.825C666.183 755.592 669.577 754.316 672.935 752.997L673.947 755.573ZM596.646 131.093C598.648 128.068 600.672 125.087 602.717 122.154L604.987 123.737C602.955 126.65 600.944 129.613 598.953 132.62L596.646 131.093ZM579.526 158.728C581.351 155.601 583.193 152.5 585.052 149.43L587.419 150.864C585.568 153.92 583.734 157.008 581.916 160.123L579.526 158.728ZM642.817 766.292C639.337 767.334 635.829 768.336 632.294 769.298L631.567 766.628C635.08 765.671 638.566 764.676 642.024 763.641L642.817 766.292ZM563.711 187.109C565.417 183.922 567.135 180.747 568.868 177.589L571.294 178.92C569.566 182.069 567.852 185.235 566.151 188.414L563.711 187.109ZM548.739 215.914C550.369 212.702 552.01 209.489 553.662 206.28L556.122 207.546C554.473 210.75 552.835 213.959 551.206 217.167L548.739 215.914ZM610.987 774.555C607.423 775.347 603.836 776.103 600.229 776.821L599.688 774.107C603.276 773.393 606.842 772.642 610.386 771.854L610.987 774.555ZM534.204 244.903C535.8 241.697 537.405 238.476 539.018 235.246L541.494 236.482C539.881 239.711 538.277 242.93 536.681 246.137L534.204 244.903ZM519.689 273.881C521.3 270.705 522.916 267.498 524.537 264.266L527.011 265.507C525.387 268.742 523.77 271.952 522.157 275.133L519.689 273.881ZM578.648 780.653C575.034 781.219 571.404 781.75 567.758 782.248L567.384 779.506C571.012 779.011 574.624 778.482 578.22 777.919L578.648 780.653ZM504.715 302.596C506.398 299.484 508.083 296.322 509.772 293.114L512.221 294.402C510.528 297.619 508.838 300.791 507.148 303.913L504.715 302.596ZM545.994 784.807C542.368 785.167 538.729 785.495 535.081 785.792L534.856 783.034C538.489 782.738 542.111 782.411 545.721 782.053L545.994 784.807ZM488.592 330.662C490.438 327.678 492.281 324.609 494.123 321.464L496.511 322.863C494.658 326.025 492.804 329.113 490.946 332.117L488.592 330.662ZM470.174 357.191C472.349 354.478 474.514 351.617 476.673 348.62L478.919 350.237C476.735 353.269 474.541 356.168 472.333 358.922L470.174 357.191ZM513.181 787.201C509.544 787.374 505.899 787.518 502.249 787.634L502.161 784.868C505.797 784.753 509.427 784.61 513.049 784.437L513.181 787.201ZM451.649 376.225C452.98 375.162 454.307 374.035 455.629 372.847L457.479 374.905C456.119 376.127 454.751 377.289 453.375 378.387C451.952 379.523 450.469 380.647 448.927 381.761L447.307 379.518C448.815 378.428 450.263 377.331 451.649 376.225ZM480.318 787.982C476.668 787.984 473.016 787.958 469.361 787.905L469.401 785.138C473.042 785.191 476.681 785.217 480.316 785.215L480.318 787.982ZM418.35 396.395C421.806 394.699 425.133 392.99 428.32 391.263L429.638 393.696C426.415 395.442 423.054 397.169 419.569 398.879L418.35 396.395ZM447.443 787.264C443.794 787.104 440.145 786.918 436.498 786.706L436.659 783.944C440.292 784.155 443.928 784.34 447.564 784.5L447.443 787.264ZM387.514 409.983C391.032 408.565 394.477 407.143 397.843 405.713L398.925 408.261C395.542 409.697 392.08 411.126 388.548 412.55L387.514 409.983ZM414.629 785.126C410.99 784.812 407.356 784.473 403.728 784.109L404.004 781.356C407.619 781.718 411.241 782.056 414.867 782.369L414.629 785.126ZM355.957 421.99C359.531 420.692 363.062 419.393 366.543 418.094L367.511 420.686C364.021 421.989 360.483 423.29 356.902 424.591L355.957 421.99ZM381.938 781.621C378.31 781.156 374.691 780.667 371.082 780.154L371.472 777.414C375.068 777.925 378.674 778.413 382.29 778.876L381.938 781.621ZM324.136 433.26C327.713 432.015 331.267 430.774 334.793 429.536L335.709 432.147C332.181 433.386 328.625 434.628 325.046 435.873L324.136 433.26ZM349.438 776.774C345.816 776.158 342.207 775.517 338.614 774.854L339.117 772.133C342.697 772.794 346.293 773.432 349.902 774.046L349.438 776.774ZM292.239 444.339C295.798 443.097 299.349 441.862 302.886 440.634L303.794 443.249C300.257 444.476 296.708 445.71 293.151 446.952L292.239 444.339ZM317.136 770.575C313.54 769.805 309.961 769.013 306.404 768.197L307.022 765.5C310.567 766.312 314.132 767.102 317.715 767.869L317.136 770.575ZM260.399 455.65C263.928 454.366 267.462 453.093 270.997 451.83L271.928 454.436C268.398 455.697 264.869 456.968 261.345 458.25L260.399 455.65ZM285.107 762.984C281.561 762.059 278.039 761.112 274.543 760.142L275.283 757.476C278.765 758.441 282.273 759.385 285.805 760.306L285.107 762.984ZM228.761 467.584C232.248 466.213 235.753 464.856 239.272 463.512L240.259 466.098C236.748 467.438 233.251 468.792 229.774 470.159L228.761 467.584ZM253.485 753.938C249.993 752.846 246.532 751.732 243.105 750.597L243.975 747.97C247.388 749.101 250.834 750.21 254.311 751.297L253.485 753.938ZM197.517 480.575C200.938 479.062 204.394 477.569 207.879 476.094L208.958 478.642C205.485 480.112 202.043 481.599 198.636 483.106L197.517 480.575ZM222.43 743.331C218.945 742.033 215.501 740.712 212.101 739.369L213.118 736.795C216.5 738.132 219.927 739.446 223.395 740.738L222.43 743.331ZM166.968 495.166C170.278 493.446 173.642 491.751 177.054 490.08L178.271 492.566C174.878 494.227 171.534 495.912 168.244 497.621L166.968 495.166ZM191.872 730.877C188.51 729.377 185.2 727.854 181.945 726.309L183.131 723.809C186.366 725.345 189.656 726.859 193 728.349L191.872 730.877ZM137.655 512.115C140.761 510.096 143.948 508.112 147.209 506.162L148.63 508.536C145.397 510.471 142.239 512.436 139.163 514.435L137.655 512.115ZM162.362 716.378C159.084 714.599 155.877 712.796 152.744 710.97L154.138 708.579C157.245 710.391 160.428 712.18 163.682 713.945L162.362 716.378ZM110.521 532.63C113.29 530.147 116.182 527.713 119.189 525.327L120.909 527.494C117.943 529.849 115.093 532.246 112.368 534.69L110.521 532.63ZM134.142 699.24C131.103 697.162 128.16 695.058 125.314 692.93L126.972 690.714C129.784 692.818 132.696 694.899 135.704 696.956L134.142 699.24ZM88.0174 558.091C90.0954 554.974 92.3594 551.927 94.7968 548.947L96.9387 550.699C94.5549 553.613 92.345 556.588 90.32 559.626L88.0174 558.091ZM108.293 678.806C105.544 676.254 102.935 673.673 100.473 671.064L102.485 669.165C104.903 671.727 107.468 674.265 110.176 676.778L108.293 678.806ZM86.6431 653.802C84.5707 650.668 82.7112 647.502 81.0751 644.307L83.5382 643.046C85.1246 646.144 86.9316 649.222 88.9512 652.275L86.6431 653.802ZM74.415 589.345C75.2423 585.607 76.3159 581.954 77.6217 578.384L80.2205 579.334C78.9559 582.792 77.917 586.327 77.1168 589.943L74.415 589.345ZM73.7224 623.297C73.3776 621.473 73.1078 619.642 72.9147 617.805C72.71 615.857 72.5664 613.929 72.4828 612.02L75.2474 611.899C75.3285 613.751 75.4678 615.623 75.6668 617.516C75.8518 619.276 76.1105 621.032 76.4415 622.784L73.7224 623.297Z" fill="#B0E6E4"/>
<path fill-rule="evenodd" clip-rule="evenodd" d="M710.017 206.01L727.868 289.211H676.015L684.797 227.084C670.806 235.517 657.059 239.592 650.606 237.929C634.425 233.758 632.938 174.564 645.458 151.228C657.977 127.891 722.34 117.72 725.584 163.956C726.71 180.003 719.972 194.324 710.017 206.01Z" fill="#B28B67"/>
<path fill-rule="evenodd" clip-rule="evenodd" d="M668.327 154.614C636.416 157.364 627.339 143.142 630.153 125.504C634.096 128.015 643.108 126.926 654.054 125.605C678.846 122.611 713.557 118.42 721.75 152.136C735.477 176.402 724.785 201.538 710.41 210.163C706.558 205.599 703.196 201.176 700.196 196.942C702.605 194.588 704.101 191.303 704.101 187.669C704.101 180.509 698.297 174.705 691.138 174.705C689.465 174.705 687.866 175.022 686.398 175.599C680.371 165.925 675.363 158.55 668.327 154.614Z" fill="black"/>
<path d="M728.25 479.338L675.224 661.91L650.284 798.988H625.251L650.239 479.338H728.25Z" fill="#B28B67"/>
<path d="M752.08 479.338C748.38 574.183 749.839 625.914 750.668 634.531C751.496 643.149 756.197 700.86 788.231 801.881H762.195C719.771 704.969 704.961 647.257 700.095 634.531C695.229 621.806 680.858 570.075 659.877 479.338H752.08Z" fill="#B28B67"/>
<path d="M729.386 479.338C715.593 542.161 691.738 642.444 657.82 780.185H621.207C618.502 638.807 630.006 545.756 649.928 479.338H729.386Z" fill="#160E09"/>
<path d="M752.264 479.338C748.64 574.183 758.031 667.624 787.12 781.662H748.056C705.553 686.196 675.09 593.217 654.271 479.338H752.264Z" fill="#24170E"/>
<path d="M792.546 820.205L791.186 798.3C791.142 797.588 790.584 797.014 789.873 796.949L759.504 794.17L707.421 813.489C706.006 814.014 705.232 815.538 705.644 816.99L707.787 824.544H759.504H789.673L792.546 820.205Z" fill="black"/>
<path d="M656.433 820.205L655.073 798.3C655.029 797.588 654.472 797.014 653.76 796.949L623.391 794.17L571.309 813.489C569.893 814.014 569.119 815.538 569.531 816.99L571.674 824.544H623.391H653.56L656.433 820.205Z" fill="black"/>
<path d="M691.502 248.433C641.187 305.897 583.903 337.161 498.1 372.4L518.752 410.327C608.145 398.738 655.859 390.31 691.502 333.272C700.448 318.957 715.636 270.245 724.87 244.902L691.502 248.433Z" fill="#066ABF"/>
<path d="M775.049 483.658H635.443C635.443 483.658 665.213 311.266 666.438 247.019C666.48 244.835 670.513 240.988 672.297 241.491C691.868 247.019 714.183 237.358 714.183 237.358C753.622 300.788 767.26 378.882 775.049 483.658Z" fill="white"/>
<path d="M412.036 338.374C412.036 324.613 423.193 313.456 436.955 313.456V313.456C450.716 313.456 461.873 324.613 461.873 338.374V363.293C461.873 377.055 450.716 388.211 436.955 388.211V388.211C423.193 388.211 412.036 377.055 412.036 363.293V338.374Z" fill="#EEEEEE"/>
<path fill-rule="evenodd" clip-rule="evenodd" d="M410.653 338.374C410.653 323.848 422.428 312.073 436.955 312.073C451.481 312.073 463.256 323.848 463.256 338.374V363.293C463.256 377.819 451.481 389.594 436.955 389.594C422.428 389.594 410.653 377.819 410.653 363.293V338.374ZM436.955 314.84C423.957 314.84 413.42 325.377 413.42 338.374V363.293C413.42 376.29 423.957 386.827 436.955 386.827C449.952 386.827 460.489 376.29 460.489 363.293V338.374C460.489 325.377 449.952 314.84 436.955 314.84Z" fill="#DEDEDE"/>
<path d="M455.411 315.302H418.495C416.457 315.302 414.804 313.649 414.804 311.611V311.611C414.804 309.572 416.457 307.919 418.495 307.919H455.411C457.45 307.919 459.103 309.572 459.103 311.611V311.611C459.103 313.649 457.45 315.302 455.411 315.302Z" fill="#BC624E"/>
<path d="M417.574 354.063C417.574 343.36 426.251 334.683 436.954 334.683V334.683C447.658 334.683 456.335 343.36 456.335 354.064V356.832C456.335 367.536 447.658 376.213 436.954 376.213V376.213C426.251 376.213 417.574 367.536 417.574 356.832V354.063Z" fill="#FF8C03"/>
<path d="M530.168 308.843H569.102V387.289H530.168V308.843Z" fill="#D98A00"/>
<path d="M530.168 308.843L549.635 330.335L569.102 308.843H530.168Z" fill="#AD7742"/>
<path d="M569.102 308.843H576.313V387.289H569.102V308.843Z" fill="#AD7742"/>
<path d="M506.171 339.291C506.171 331.649 512.365 325.455 520.007 325.455H542.171C549.812 325.455 556.007 331.649 556.007 339.291V374.376C556.007 382.017 549.812 388.212 542.171 388.212H520.007C512.365 388.212 506.171 382.017 506.171 374.376V339.291Z" fill="#EEEEEE"/>
<path fill-rule="evenodd" clip-rule="evenodd" d="M504.787 339.291C504.787 330.885 511.601 324.071 520.007 324.071H542.171C550.577 324.071 557.391 330.885 557.391 339.291V374.376C557.391 382.781 550.577 389.595 542.171 389.595H520.007C511.601 389.595 504.787 382.781 504.787 374.376V339.291ZM520.007 326.838C513.129 326.838 507.554 332.413 507.554 339.291V374.376C507.554 381.253 513.129 386.828 520.007 386.828H542.171C549.048 386.828 554.623 381.253 554.623 374.376V339.291C554.623 332.413 549.048 326.838 542.171 326.838H520.007Z" fill="#DEDEDE"/>
<path d="M549.545 325.454H512.629C510.591 325.454 508.938 323.802 508.938 321.763V321.763C508.938 319.725 510.591 318.072 512.629 318.072H549.545C551.584 318.072 553.237 319.725 553.237 321.763V321.763C553.237 323.802 551.584 325.454 549.545 325.454Z" fill="#BC624E"/>
<path d="M463.719 338.374C463.719 324.613 474.875 313.456 488.637 313.456V313.456C502.399 313.456 513.555 324.613 513.555 338.374V363.293C513.555 377.055 502.399 388.211 488.637 388.211V388.211C474.875 388.211 463.719 377.055 463.719 363.293V338.374Z" fill="#EEEEEE"/>
<path fill-rule="evenodd" clip-rule="evenodd" d="M462.336 338.374C462.336 323.848 474.111 312.073 488.637 312.073C503.163 312.073 514.939 323.848 514.939 338.374V363.293C514.939 377.819 503.163 389.594 488.637 389.594C474.111 389.594 462.336 377.819 462.336 363.293V338.374ZM488.637 314.84C475.64 314.84 465.103 325.377 465.103 338.374V363.293C465.103 376.29 475.64 386.827 488.637 386.827C501.635 386.827 512.172 376.29 512.172 363.293V338.374C512.172 325.377 501.635 314.84 488.637 314.84Z" fill="#DEDEDE"/>
<path d="M507.094 315.302H470.178C468.14 315.302 466.486 313.649 466.486 311.611V311.611C466.486 309.572 468.14 307.919 470.178 307.919H507.094C509.133 307.919 510.785 309.572 510.785 311.611V311.611C510.785 313.649 509.133 315.302 507.094 315.302Z" fill="#BC624E"/>
<path d="M463.722 354.064C463.722 343.36 472.399 334.683 483.103 334.683V334.683C493.807 334.683 502.484 343.36 502.484 354.064V356.832C502.484 367.536 493.807 376.213 483.103 376.213V376.213C472.399 376.213 463.722 367.536 463.722 356.832V354.064Z" fill="#BC624E"/>
<path d="M430.031 327.757H473.407V394.205H430.031V327.757Z" fill="#EEEEEE"/>
<path fill-rule="evenodd" clip-rule="evenodd" d="M428.648 326.373H474.791V395.589H428.648V326.373ZM431.415 329.141V392.822H472.024V329.141H431.415Z" fill="#DEDEDE"/>
<path d="M472.485 329.602H431.877C429.838 329.602 428.186 327.95 428.186 325.911V325.911C428.186 323.872 429.838 322.22 431.877 322.22H472.485C474.523 322.22 476.176 323.872 476.176 325.911V325.911C476.176 327.95 474.523 329.602 472.485 329.602Z" fill="#BC624E"/>
<path d="M472.485 386.828H431.877C429.838 386.828 428.186 385.176 428.186 383.137V383.137C428.186 381.098 429.838 379.445 431.877 379.445H472.485C474.523 379.445 476.176 381.098 476.176 383.137V383.137C476.176 385.176 474.523 386.828 472.485 386.828Z" fill="#FF5F68"/>
<path d="M432.799 336.986H451.256V378.516H432.799V336.986Z" fill="#EEEEEE"/>
<path d="M449.875 387.288H401.596V334.683H449.875V387.288Z" fill="#D19C62"/>
<path d="M449.875 334.683L425.735 349.095L401.596 334.683H449.875Z" fill="#AD7742"/>
<path d="M401.595 387.288H392.655V334.683H401.595V387.288Z" fill="#AD7742"/>
<path d="M383.426 361.447H584.617V447.276H383.426V361.447Z" fill="#C6906B"/>
<path d="M445.26 361.447H584.617V447.276H531.09C483.687 447.276 445.26 408.849 445.26 361.447V361.447Z" fill="#D6B096"/>
<path d="M615.332 405.718L535.354 435.954C520.944 448.883 507.175 458.562 494.049 464.991C490.172 466.006 483.637 466.031 491.121 456.242C498.605 446.453 506.036 435.82 503.445 432.116C500.854 428.412 492.602 431.917 489.726 425.964C487.809 421.995 501.614 418.091 531.141 414.252L592.045 372.43L615.332 405.718Z" fill="#B28B67"/>
<path d="M793.734 536.82C793.734 536.82 746.121 536.82 705.031 536.82C631.613 536.82 650.199 387.368 700.02 237.358C700.02 237.358 717.203 237.358 725.795 237.358C732.368 237.358 735.159 242.125 736.47 244.653C770.796 310.867 807.822 442.142 793.734 536.82Z" fill="#0775D2"/>
<path d="M714.084 259.268C679.416 291.474 636.591 356.742 549.528 397.713L587.152 416.276C679.277 399.612 716.186 380.29 749.957 319.361C755.607 309.166 746.594 305.457 714.084 259.268Z" fill="#055FAC"/>
<path d="M708.478 250.501C675.544 284.477 633.367 351.377 548.569 396.848L559.263 437.487C650.39 416.025 724.433 366.885 754.969 304.272C760.079 293.795 743.361 294.925 708.478 250.501Z" fill="#0775D2"/>
<path fill-rule="evenodd" clip-rule="evenodd" d="M756.213 304.878C725.429 367.998 650.94 417.317 559.58 438.834L558.268 439.143L546.953 396.145L547.915 395.629C612.644 360.92 652.352 313.78 682.293 278.235C691.46 267.353 699.711 257.557 707.485 249.538L708.588 248.4L709.567 249.647C726.926 271.754 739.747 282.508 747.606 289.053C747.696 289.128 747.784 289.202 747.872 289.275C749.725 290.817 751.325 292.15 752.635 293.346C754.003 294.594 755.123 295.755 755.912 296.922C756.717 298.113 757.205 299.35 757.252 300.728C757.299 302.088 756.911 303.446 756.213 304.878ZM560.257 435.829C650.548 414.261 723.583 365.472 753.726 303.665C754.305 302.478 754.513 301.58 754.487 300.823C754.461 300.084 754.209 299.344 753.62 298.472C753.016 297.579 752.088 296.594 750.769 295.39C749.508 294.238 747.952 292.942 746.073 291.378C745.995 291.312 745.915 291.246 745.835 291.18C738.043 284.69 725.401 274.081 708.375 252.604C701.078 260.245 693.283 269.501 684.633 279.773C654.829 315.163 614.874 362.606 550.184 397.55L560.257 435.829Z" fill="black" fill-opacity="0.01"/>
<path fill-rule="evenodd" clip-rule="evenodd" d="M243.157 213.737C221.244 213.737 203.481 231.501 203.481 253.413V287.074C203.481 306.95 218.096 323.412 237.166 326.3C237.174 326.462 237.183 326.625 237.193 326.788H288.331C297.027 318.28 287.199 260.569 281.07 241.443C280.23 238.821 279.416 236.914 278.616 235.595C272.089 222.631 258.662 213.737 243.157 213.737Z" fill="black"/>
<path fill-rule="evenodd" clip-rule="evenodd" d="M240.462 297.617C251.555 304.423 262.454 307.711 267.57 306.369C280.399 303.003 281.579 255.228 271.652 236.394C261.725 217.56 210.694 209.351 208.122 246.667C207.229 259.618 212.571 271.177 220.465 280.608L206.312 347.757H247.424L240.462 297.617Z" fill="#D9C7B5"/>
<path fill-rule="evenodd" clip-rule="evenodd" d="M205.036 247.552C206.264 246.335 207.453 245.159 208.632 244.105L208.575 242.733C208.575 242.733 221.858 215.503 242.278 215.503C262.679 215.503 269.131 225 274.616 233.074L274.631 233.096C271.762 242.953 263.116 246.941 253.338 251.451C249.129 253.393 244.71 255.431 240.452 258.076C238.784 256.719 236.657 255.905 234.341 255.905C228.984 255.905 224.642 260.254 224.642 265.617C224.642 270.981 228.984 275.329 234.341 275.329C234.488 275.329 234.636 275.326 234.782 275.319C236.732 296.294 235.95 320.245 230.139 325.931H179.001C177.533 300.39 184.131 293.104 190.873 285.659C197.217 278.653 203.689 271.507 203.689 248.88C204.144 248.435 204.592 247.991 205.036 247.552L205.036 247.552Z" fill="black"/>
<path d="M132.171 638.249C132.171 638.249 184.58 660.085 223.957 664.919C263.335 669.754 299.977 650.537 299.977 650.537C299.977 650.537 248.778 628.444 214.41 624.224C180.043 620.005 132.171 638.249 132.171 638.249Z" fill="#160E09"/>
<path d="M211.955 697.059C211.741 696.528 211.592 695.973 211.512 695.396C209.867 683.456 212.216 555.487 210.735 532.443L250.609 548.801C251.735 566.321 248.717 673.38 246.612 694.308C248.97 728.949 243.208 837.297 244.174 845.194C245.19 853.502 225.308 856.153 223.211 845.696C219.874 829.057 213.519 783.844 212.591 757.084C211.72 731.996 211.573 709.608 211.955 697.059Z" fill="#D3BDA8"/>
<path d="M221.075 834.536C219.496 833.81 217.631 834.553 216.985 836.165L213.033 846.018C212.604 850.104 213.142 858.085 213.142 858.085C217.884 858.583 298.379 867.044 298.379 867.044C298.379 867.044 302.855 856.415 295.789 854.787C288.722 853.16 284.062 851.957 284.062 851.957L246.3 830.141C245.558 829.713 244.61 829.981 244.203 830.734L241.007 836.64C241.007 836.64 234.056 839.033 229.912 838.598L221.075 834.536Z" fill="#E4E4E4"/>
<path d="M185.803 679.43C185.675 678.808 185.615 678.164 185.63 677.499C185.937 663.733 165.618 505.677 167.924 479.213L249.396 512.13C247.643 532.251 226.913 654.591 221.327 678.413C217.993 718.204 194.273 841.851 193.947 850.949C193.604 860.52 173.047 862.329 172.652 850.233C172.022 830.985 173.057 778.849 176.536 748.165C179.797 719.4 183.345 693.768 185.803 679.43Z" fill="#D9C7B5"/>
<path d="M169.624 846.656C168.058 845.903 166.18 846.613 165.506 848.214L161.383 857.996C160.882 862.074 161.281 870.063 161.281 870.063C166.014 870.644 246.349 880.508 246.349 880.508C246.349 880.508 251.01 869.959 243.973 868.208C236.936 866.458 232.297 865.173 232.297 865.173L194.922 842.702C194.188 842.261 193.235 842.512 192.815 843.258L189.516 849.107C189.516 849.107 182.524 851.379 178.389 850.872L169.624 846.656Z" fill="#E4E4E4"/>
<path d="M179.877 494.024C179.877 494.024 232.677 485.702 276.404 505.876C281.051 555.314 304.359 577.572 299.807 651.935C245.4 671.104 187.41 619.699 131.573 638.051C120.755 601.463 152.142 520.401 179.877 494.024Z" fill="#291333"/>
<path d="M347.527 410.662L372.104 397.114C372.104 397.114 377.276 377.364 384.47 377.24C388.155 375.52 381.739 392.158 388.723 390.715C395.707 389.272 412.754 376.55 415.691 379.133C420.036 382.955 416.162 394.688 411.596 400.525C403.064 411.435 395.999 415.165 378.538 420.051C364.844 423.882 348.927 435.41 348.927 435.41L347.527 410.662Z" fill="#D9C7B5"/>
<path d="M273.19 389.509L336.444 380.853C349.104 373.837 360.748 369.084 371.377 366.593C374.367 366.503 379.123 367.579 372.029 373.465C364.936 379.351 357.738 385.862 358.997 388.997C360.256 392.133 366.848 390.958 367.934 395.782C368.658 398.998 357.962 399.533 335.845 397.387L284.505 417.689L273.19 389.509Z" fill="#D9C7B5"/>
<path fill-rule="evenodd" clip-rule="evenodd" d="M271.245 388.379L336.001 379.518C348.65 372.527 360.339 367.758 371.061 365.246L371.196 365.214L371.335 365.21C372.16 365.185 373.148 365.238 374.059 365.455C374.913 365.659 375.993 366.076 376.628 367.01C377.362 368.088 377.205 369.364 376.556 370.557C375.925 371.714 374.734 373.019 372.913 374.53C369.367 377.472 365.86 380.519 363.401 383.198C362.167 384.543 361.254 385.734 360.726 386.726C360.17 387.77 360.202 388.285 360.281 388.482C360.415 388.814 360.715 389.126 361.391 389.465C361.915 389.726 362.497 389.929 363.19 390.17C363.445 390.258 363.714 390.352 364.001 390.455C365.961 391.163 368.567 392.292 369.284 395.478C369.47 396.304 369.272 397.104 368.732 397.75C368.246 398.33 367.548 398.713 366.823 398.986C365.367 399.534 363.227 399.842 360.524 399.977C355.124 400.247 346.948 399.846 336.044 398.796L283.734 419.481L271.245 388.379ZM275.135 390.64L285.276 415.896L335.647 395.977L335.979 396.01C347.026 397.081 355.145 397.475 360.386 397.213C363.031 397.081 364.813 396.786 365.849 396.396C366.275 396.236 366.481 396.093 366.568 396.016C366.18 394.428 364.955 393.742 363.061 393.058C362.859 392.985 362.645 392.911 362.422 392.833C361.68 392.576 360.852 392.289 360.153 391.939C359.205 391.465 358.21 390.748 357.714 389.513C357.163 388.142 357.623 386.667 358.284 385.425C358.973 384.13 360.067 382.738 361.362 381.327C363.961 378.496 367.599 375.344 371.146 372.4C372.872 370.968 373.746 369.931 374.125 369.234C374.31 368.896 374.343 368.7 374.346 368.62C374.347 368.601 374.346 368.589 374.345 368.582C374.345 368.575 374.344 368.572 374.344 368.572C374.344 368.572 374.344 368.572 374.344 368.572L374.341 368.566C374.3 368.507 374.074 368.304 373.417 368.147C372.856 368.013 372.185 367.963 371.553 367.973C361.118 370.436 349.641 375.121 337.115 382.063L336.888 382.189L275.135 390.64Z" fill="black" fill-opacity="0.01"/>
<path d="M245.577 373.993C264.175 380.177 290.237 384.758 322.384 377.043L324.761 403.779C300.338 415.627 269.643 421.702 247.501 413.373C230.052 406.809 228.411 382.322 245.577 373.993Z" fill="#FFBF4F"/>
<path d="M159.008 516.64C188.14 510.885 262.268 543.526 277.065 511.955C286.918 447.089 250.127 331.146 250.127 331.146L210.935 322.845C206.03 322.845 176.098 353.33 176.067 394.988C176.039 433.028 140.765 457.189 159.008 516.64Z" fill="#FFC663"/>
<path d="M243.521 368.451C243.521 368.451 246.26 406.327 268.988 414.159C291.715 421.991 349.993 401.182 349.993 401.182C349.993 401.182 363.623 429.477 362.595 441.526C233.156 509.372 173.823 451.785 214.446 368.451H243.521Z" fill="#FFAA15"/>
<path d="M251.822 362.917C251.822 362.917 254.562 400.793 277.289 408.625C300.016 416.457 358.295 395.648 358.295 395.648C358.295 395.648 371.924 423.942 370.896 435.991C241.457 503.838 182.124 446.25 222.748 362.917H251.822Z" fill="#FFC663"/>
</svg>
