<svg width="375" height="770" viewBox="0 0 375 770" fill="none" xmlns="http://www.w3.org/2000/svg">
<path d="M188 598C395.107 598 563 483.161 563 341.5C563 199.839 395.107 85.0004 188 85.0004C-19.1068 85.0004 -187 199.839 -187 341.5C-187 483.161 -19.1068 598 188 598Z" fill="#DFF5F5"/>
<path opacity="0.282587" d="M187.449 74.5393C162.902 43.8797 -84.9565 109.977 -103.984 165.435C-123.011 220.894 -49.1492 256.507 41.1666 221.01C131.482 185.513 211.997 105.199 187.449 74.5393Z" fill="#0775D2"/>
<path opacity="0.381112" d="M393.114 744.339C411.533 725.921 414.216 687.966 391.744 665.494C369.272 643.022 331.317 645.705 312.899 664.124C294.48 682.542 313.349 715.109 331.78 733.54C350.211 751.971 374.696 762.757 393.114 744.339Z" fill="#FFC663"/>
</svg>
