<svg width="750" height="770" viewBox="0 0 750 770" fill="none" xmlns="http://www.w3.org/2000/svg">
<path d="M375 597.548C582.107 597.548 750 482.709 750 341.048C750 199.387 582.107 84.5483 375 84.5483C167.893 84.5483 0 199.387 0 341.048C0 482.709 167.893 597.548 375 597.548Z" fill="#DFF5F5"/>
<path opacity="0.282587" d="M374.449 74.0872C349.902 43.4277 102.044 109.525 83.0162 164.983C63.9889 220.442 137.851 256.055 228.167 220.558C318.482 185.061 398.997 104.747 374.449 74.0872Z" fill="#0775D2"/>
<path opacity="0.381112" d="M580.114 743.887C598.533 725.468 601.216 687.514 578.744 665.042C556.272 642.569 518.317 645.253 499.899 663.671C481.48 682.09 500.349 714.656 518.78 733.088C537.211 751.519 561.696 762.305 580.114 743.887Z" fill="#FFC663"/>
</svg>
