<svg id="trinityForksLogo" width="137" height="43" viewBox="0 0 137 43" fill="none" xmlns="http://www.w3.org/2000/svg" class="svgivon trinityForksLogo">
    <path class="shape fork" d="M135.4 18.3h-27.5c1.5-1 2.4-2.7 2.5-4.6.2-3.4-2.4-6.2-5.8-6.4h-.7L64 8.3C63 3.7 59.2 0 54.4 0c-6.8 0-27.3 1.7-27.3 1.7L27 3.5l24.5.5c1.2.1 2.1 1.1 2.1 2.3-.1 1.2-1.1 2.1-2.3 2.1H26.8l-.1 2.3L51.1 13c1.2.1 2.1 1.1 2.1 2.3-.1 1.2-1.1 2.1-2.3 2.1l-24.4-1.9-.1 1.7s2.7.5 6.4 1.2H1.3c-.7 0-1.3.6-1.3 1.3 0 .7.6 1.3 1.3 1.3h134.1c.7 0 1.3-.6 1.3-1.3 0-.8-.6-1.4-1.3-1.4zm-74 0c1-1.1 1.7-2.5 2.2-4l31.2 4H61.4z" fill="#82C7C6" />
    <path class="shape line-01" d="M82.7 26.1H18.3c-.7 0-1.3-.6-1.3-1.3 0-.7.6-1.3 1.3-1.3h64.4c.7 0 1.3.6 1.3 1.3 0 .7-.6 1.3-1.3 1.3z" fill="#D2731C" />
    <path class="shape line-02" d="M119.9 26.1H87.8c-.7 0-1.3-.6-1.3-1.3 0-.7.6-1.3 1.3-1.3h32.1c.7 0 1.3.6 1.3 1.3 0 .7-.5 1.3-1.3 1.3z" fill="#EEC951" />
    <path class="shape line-03" d="M99.2 31.3H37.5c-.7 0-1.3-.6-1.3-1.3 0-.7.6-1.3 1.3-1.3h61.7c.7 0 1.3.6 1.3 1.3 0 .7-.6 1.3-1.3 1.3z" fill="#CCCC57" />
    <path class="shape text" d="M22.2 37.9h-1.7v-.7h4.1v.7h-1.7v4.6h-.7v-4.6zM29.1 37.2H31c.3 0 .6 0 .8.1.2.1.4.2.5.3.1.1.2.3.3.5 0 .2.1.3.1.5s0 .3-.1.5-.1.3-.3.4c-.1.1-.2.2-.4.3-.2.1-.3.1-.5.2l1.5 2.4H32l-1.3-2.3h-.8v2.3h-.7v-5.2h-.1zm.7 2.4h1.3c.1 0 .3-.1.4-.1.1-.1.2-.1.3-.3.1-.1.1-.3.1-.4 0-.2 0-.3-.1-.4l-.3-.3c-.1-.1-.2-.1-.4-.1h-1.3v1.6zM37.4 37.2h.7v5.3h-.7v-5.3zM43.1 37.2h.9l2.9 4.3v-4.3h.7v5.3h-.9l-2.9-4.3v4.3h-.7v-5.3zM52.8 37.2h.7v5.3h-.7v-5.3zM59.7 37.9H58v-.7h4.1v.7h-1.7v4.6h-.7v-4.6zM67.8 40.3l-2-3h.9l1.4 2.3 1.5-2.3h.9l-2 3v2.2h-.7v-2.2zM80.6 37.2H84v.7h-2.6v1.7h2.4v.7h-2.4v2.3h-.7v-5.4h-.1zM91.1 42.6c-.4 0-.8-.1-1.1-.2-.3-.1-.6-.3-.9-.6-.2-.2-.4-.5-.6-.9-.1-.3-.2-.7-.2-1.1 0-.4.1-.8.2-1.1.1-.3.3-.6.6-.9.2-.2.5-.4.9-.6.3-.1.7-.2 1.1-.2.4 0 .8.1 1.1.2.3.1.6.3.9.6.2.2.4.5.6.9.1.3.2.7.2 1.1 0 .4-.1.8-.2 1.1-.1.3-.3.6-.6.9-.2.2-.5.4-.9.6-.4.2-.7.2-1.1.2zm0-.6c.3 0 .6-.1.8-.2.2-.1.5-.3.6-.5.2-.2.3-.4.4-.7.1-.3.1-.5.1-.8 0-.3 0-.6-.1-.8-.1-.3-.2-.5-.4-.7-.2-.2-.4-.3-.6-.5-.2-.1-.5-.2-.8-.2-.3 0-.6.1-.8.2-.2.1-.5.3-.6.5-.2.2-.3.4-.4.7-.1.3-.1.5-.1.8 0 .3 0 .6.1.8.1.3.2.5.4.7.2.2.4.3.6.5.2.1.5.2.8.2zM98.5 37.2h1.9c.3 0 .6 0 .8.1.2.1.4.2.5.3.1.1.2.3.3.5 0 .2.1.3.1.5s0 .3-.1.5-.1.3-.3.4c-.1.1-.2.2-.4.3-.2.1-.3.1-.5.2l1.5 2.4h-.9l-1.3-2.3h-.8v2.3h-.7v-5.2h-.1zm.8 2.4h1.3c.1 0 .3-.1.4-.1.1-.1.2-.1.3-.3.1-.1.1-.3.1-.4 0-.2 0-.3-.1-.4l-.3-.3c-.1-.1-.2-.1-.4-.1h-1.3v1.6zM106.8 37.2h.7v2.3h.1l2.3-2.3h1l-2.5 2.4 2.7 2.8h-1l-2.5-2.6h-.1v2.6h-.7v-5.2zM115.5 41.4c.1.2.3.3.5.4.2.1.4.1.6.1.1 0 .2 0 .4-.1.1 0 .2-.1.3-.2.1-.1.2-.2.2-.3.1-.1.1-.2.1-.4s-.1-.4-.2-.5c-.1-.1-.3-.2-.5-.3-.2-.1-.4-.1-.6-.2l-.6-.3c-.2-.1-.4-.3-.5-.5-.1-.2-.2-.5-.2-.8 0-.2 0-.3.1-.5s.2-.3.3-.5c.1-.1.3-.3.6-.4.2-.1.5-.1.8-.1.3 0 .6 0 .8.1.3.1.5.2.7.5l-.6.5c-.1-.1-.2-.3-.4-.3-.2-.1-.3-.1-.6-.1-.2 0-.4 0-.5.1-.1.1-.2.1-.3.2-.1.1-.1.2-.2.3v.3c0 .2.1.4.2.5.1.1.3.2.5.3.2.1.4.1.6.2.2.1.4.1.6.2.2.1.4.3.5.4.1.2.2.4.2.7 0 .3 0 .5-.1.7-.1.2-.2.4-.4.5l-.6.3c-.2.1-.5.1-.7.1-.3 0-.7-.1-1-.2-.3-.1-.5-.3-.7-.6l.7-.1z" fill="#D0A468" />
</svg>